<?xml version="1.0" encoding="utf-8"?>
<!-- Generator: Adobe Illustrator 25.0.0, SVG Export Plug-In . SVG Version: 6.00 Build 0)  -->
<svg version="1.1" id="Layer_1" xmlns="http://www.w3.org/2000/svg" xmlns:xlink="http://www.w3.org/1999/xlink" x="0px" y="0px"
	 viewBox="0 0 379.9 28.4" style="enable-background:new 0 0 379.9 28.4;" xml:space="preserve">
<style type="text/css">
	.st0{fill:#FFFFFF;}
</style>
<path class="st0" d="M15.1,7c0,5-5.2,5.4-7.5,5.4c-1.1,0-1.9-0.1-1.9-0.1v-10c0,0,1.1-0.1,3.1-0.1C11.8,2.3,15.1,3.6,15.1,7z
	 M21.9,20.1c0-6.6-9.2-7.1-9.2-7.1S19,11.4,19,6.8c0-5.3-7.1-6.1-10.2-6.1H0c0.8,0.2,1.3,0.9,1.3,1.8v23.4c0,0.8-0.5,1.6-1.3,1.8h10
	C19.9,27.6,21.9,23.2,21.9,20.1z M17.5,19.7c0,5.9-6.8,6.3-9.7,6.3c-1.3,0-2.2-0.1-2.2-0.1V14.2c0,0,2.3-0.1,3.7-0.1
	C13.2,14.1,17.5,15.1,17.5,19.7z"/>
<path class="st0" d="M305.2,7c0,5-5.2,5.4-7.5,5.4c-1.1,0-1.9-0.1-1.9-0.1v-10c0,0,1.1-0.1,3.1-0.1C301.9,2.3,305.2,3.6,305.2,7z
	 M312.1,20.1c0-6.6-9.2-7.1-9.2-7.1s6.2-1.6,6.2-6.3c0-5.3-7.1-6.1-10.2-6.1h-8.8c0.8,0.2,1.3,0.9,1.3,1.8v23.4
	c0,0.8-0.5,1.6-1.3,1.8h10C310,27.6,312.1,23.2,312.1,20.1z M307.6,19.7c0,5.9-6.8,6.3-9.7,6.3c-1.3,0-2.2-0.1-2.2-0.1V14.2
	c0,0,2.3-0.1,3.7-0.1C303.4,14.1,307.6,15.1,307.6,19.7z"/>
<path class="st0" d="M41.2,17.9H30.8c2-4.3,5.2-11.1,5.2-11.1S38.8,12.9,41.2,17.9z M52.2,27.6c-1.6-0.6-1.9-1.1-2.3-1.9
	C49.2,24.2,37.3,0,37.3,0S25.4,24.2,24.6,25.7c-0.5,0.9-1.2,1.5-2.1,1.9h5.6c-1.2-0.4-1.3-1-1-1.9c0.2-0.5,1.4-3.1,2.9-6.1h12
	c1.4,3.1,2.7,5.6,3,6.1c0.4,0.9,0,1.5-1.2,1.9H52.2z"/>
<path class="st0" d="M79.7,2.4v25.9c0,0-22-22.9-22-23.3v20.8c0,0.8,0.5,1.5,1.3,1.8h-4.7c0.7-0.3,1.2-1,1.2-1.8V4
	c0-1.1,0-1.2-0.6-1.9c-0.6-0.6-1.3-1.1-2.1-1.4h6.4L77.4,20V2.4c0-0.8-0.5-1.5-1.2-1.8h4.7C80.1,0.9,79.6,1.6,79.7,2.4z"/>
<path class="st0" d="M101.1,17.9H90.7c2-4.3,5.2-11.1,5.2-11.1S98.7,12.9,101.1,17.9z M112.1,27.6c-1.6-0.6-1.9-1.1-2.3-1.9
	C109,24.2,97.1,0,97.1,0S85.2,24.2,84.4,25.7c-0.5,0.9-1.2,1.5-2.1,1.9H88c-1.2-0.4-1.3-1-1-1.9c0.2-0.5,1.4-3.1,2.9-6.1h12
	c1.4,3.1,2.7,5.6,3,6.1c0.4,0.9,0,1.5-1.2,1.9H112.1z"/>
<path class="st0" d="M139.7,2.5v25.9c0,0-22-22.9-22-23.3v20.8c0,0.8,0.5,1.5,1.3,1.8h-4.7c0.7-0.3,1.2-1,1.2-1.8V4
	c0-1.1,0-1.2-0.6-1.9c-0.6-0.6-1.3-1.1-2.1-1.4h6.4L137.5,20V2.5c0-0.8-0.5-1.5-1.2-1.8h4.7C140.2,0.9,139.7,1.6,139.7,2.5z"/>
<path class="st0" d="M160.6,17.9h-10.4c2-4.3,5.2-11.1,5.2-11.1S158.2,12.9,160.6,17.9z M171.6,27.6c-1.6-0.6-1.9-1.1-2.3-1.9
	C168.6,24.2,156.7,0,156.7,0S144.8,24.2,144,25.7c-0.5,0.9-1.2,1.5-2.1,1.9h5.6c-1.2-0.4-1.3-1-1-1.9c0.2-0.5,1.4-3.1,2.9-6.1h12
	c1.4,3.1,2.7,5.6,3,6.1c0.4,0.9,0,1.5-1.2,1.9H171.6z"/>
<path class="st0" d="M200.9,7.4c0,4.2-3.5,5.9-7,5.9c-1.2,0-2.7-0.1-2.7-0.1V2.3c0,0,1.4-0.1,3.5-0.1C199.6,2.2,200.9,5.5,200.9,7.4
	z M212.7,27.6c-1.1-0.3-2.1-0.9-3-1.6c-2-1.9-6.9-9.1-6.9-9.1c-1.1-1.5-2.7-2.6-4.5-3c2.9-0.2,6.8-2.4,6.8-6.7
	c0-2.5-1.5-6.6-10.7-6.6h-8.7c0.7,0.3,1.2,1,1.3,1.8v23.4c0,0.8-0.5,1.5-1.3,1.8h6.9c-0.7-0.3-1.3-1-1.3-1.8V14.9h2.7
	c2.4,0,3.4,1.7,4.6,3.3c1.6,2.2,3.3,4.6,5.7,7.6c0.9,1.1,2.3,1.8,3.8,1.8C208.1,27.6,212.7,27.6,212.7,27.6z"/>
<path class="st0" d="M234,27.6h-18.6c0.8-0.2,1.4-1,1.4-1.8V2.4c0-0.8-0.5-1.5-1.3-1.8h17.4l0.1,3.1c-1-1-2.4-1.5-3.9-1.4h-8v9.5
	h7.5c0.7-0.1,1.3-0.5,1.6-1.1v3.9c-0.3-0.6-0.9-1-1.6-1.1h-7.5V26h5.4c5,0,6.7,0,8.5-2.5L234,27.6z"/>
<path class="st0" d="M255.3,8.1c0,5.4-5.4,6.2-7.9,6.2c-0.8,0-1.5-0.1-2.3-0.3V2.3c1-0.1,2.1-0.1,3.1-0.1
	C252.9,2.2,255.3,4.5,255.3,8.1z M259.3,8c0-3.1-1.7-7.4-10.9-7.4h-8.8c0.8,0.3,1.3,1,1.3,1.8v23.4c0,0.8-0.5,1.5-1.3,1.8h6.9
	c-0.8-0.3-1.3-1-1.3-1.8V15.3c3,0.9,6.2,0.8,9.2-0.2C257.3,13.9,259.2,11.1,259.3,8z"/>
<path class="st0" d="M285.8,2.5v16.6c0,6.5-4.9,8.9-10.7,8.9c-5.1,0-11.6-2.2-11.6-8.9V2.5c-0.1-0.8-0.6-1.5-1.4-1.8h7.4
	c-0.8,0.2-1.4,0.9-1.5,1.8v16.8c0,2.7,1.1,6.9,7.6,6.9c6.2,0,8.2-3.4,8.2-6.9V2.5c0-0.8-0.5-1.5-1.2-1.8h4.5
	C286.3,0.9,285.8,1.6,285.8,2.5z"/>
<path class="st0" d="M334.4,27.6H316c0.8-0.3,1.3-1,1.3-1.8V2.4c0-0.8-0.5-1.5-1.3-1.8h6.9c-0.8,0.3-1.3,1-1.2,1.8v23.5h4.9
	c5.5,0,7.1-0.1,8.7-2.5L334.4,27.6z"/>
<path class="st0" d="M339.4,27.6c0.7-0.3,1.2-1,1.2-1.8V2.4c0-0.8-0.5-1.5-1.2-1.8h6.8c-0.7,0.3-1.2,1-1.2,1.8v23.4
	c0,0.8,0.5,1.5,1.2,1.8C346.2,27.6,339.4,27.6,339.4,27.6z"/>
<path class="st0" d="M379.4,25.3c-3.6,1.8-7.6,2.7-11.6,2.7c-9.2,0-17.2-5.5-17.2-13.8c0-6.8,6-14,17.7-14c3.7,0.1,7.4,0.9,10.9,2.3
	c0,0,0.5,6,0.4,5.9c-2.1-4.1-6.4-6.6-11-6.5c-8.8,0-13.4,5.3-13.4,11.8c0,5.7,3.7,12.6,13.3,12.6c4.7,0.2,9.1-2.3,11.2-6.4
	C379.9,19.7,379.4,25.3,379.4,25.3z"/>
</svg>
