<svg xmlns="http://www.w3.org/2000/svg" width="1920" height="50" viewBox="0 0 1920 50">
  <defs>
    <style>
      .cls-1 {
        fill: #fff;
      }
    </style>
  </defs>
  <g id="_20231105_NovemberSurprise_USEC_GMB_DESK" data-name="20231105_NovemberSurprise_USEC_GMB_DESK" transform="translate(0 -40)">
    <rect id="BG" width="1920" height="50" transform="translate(0 40)"/>
    <g id="Outline" transform="translate(1863 71)">
      <path id="Path_8110" data-name="Path 8110" class="cls-1" d="M-238.608-12.546h-6.3L-246.1-5.922l1.314.072a3.063,3.063,0,0,1,2.376-1.206,2.764,2.764,0,0,1,2.88,2.9c0,2.034-1.242,3.024-2.7,3.024a2.512,2.512,0,0,1-2.682-2.3h-1.53A3.748,3.748,0,0,0-242.37.216a4.166,4.166,0,0,0,4.464-4.248c0-2.916-1.854-4.374-4.122-4.374a3.229,3.229,0,0,0-2.376.918l-.036-.036.684-3.672h5.148Zm1.944,6.282c0,2.808.252,6.48,4.248,6.48s4.248-3.672,4.248-6.48c0-2.826-.252-6.5-4.248-6.5S-236.664-9.09-236.664-6.264Zm1.62-.018c0-1.89.018-5.13,2.628-5.13s2.628,3.24,2.628,5.13c0,1.908-.018,5.148-2.628,5.148S-235.044-4.374-235.044-6.282Zm17.82,2.934c0,1.944.738,3.564,2.916,3.564,2.088,0,2.88-1.746,2.88-3.618,0-1.962-.648-3.6-2.88-3.6C-216.522-7-217.224-5.274-217.224-3.348Zm1.35-.036c0-1.08.234-2.628,1.566-2.628,1.35,0,1.53,1.548,1.53,2.61,0,1.116-.216,2.628-1.584,2.628C-215.712-.774-215.874-2.34-215.874-3.384Zm-10.242-5.724c0,1.944.738,3.564,2.916,3.564,2.088,0,2.88-1.746,2.88-3.618,0-1.962-.648-3.6-2.88-3.6C-225.414-12.762-226.116-11.034-226.116-9.108Zm1.35-.036c0-1.08.234-2.628,1.566-2.628,1.35,0,1.53,1.548,1.53,2.61,0,1.116-.216,2.628-1.584,2.628C-224.6-6.534-224.766-8.1-224.766-9.144Zm.378,9.54h1.548L-213.174-13h-1.53ZM-204.8-6.426c0,3.492,2.07,6.732,6.156,6.732s6.156-3.24,6.156-6.732-2.07-6.732-6.156-6.732S-204.8-9.918-204.8-6.426Zm1.71,0c0-2.592,1.314-5.292,4.446-5.292s4.446,2.7,4.446,5.292-1.314,5.292-4.446,5.292S-203.094-3.834-203.094-6.426ZM-190.764,0h1.71V-5.886h5.9v-1.44h-5.9v-4.086h6.732v-1.44h-8.442Zm9.972,0h1.71V-5.886h5.9v-1.44h-5.9v-4.086h6.732v-1.44h-8.442Zm14.616,0h1.71V-5.886h5.9v-1.44h-5.9v-4.086h6.732v-1.44h-8.442Zm9.252-6.426c0,3.492,2.07,6.732,6.156,6.732s6.156-3.24,6.156-6.732-2.07-6.732-6.156-6.732S-156.924-9.918-156.924-6.426Zm1.71,0c0-2.592,1.314-5.292,4.446-5.292s4.446,2.7,4.446,5.292-1.314,5.292-4.446,5.292S-155.214-3.834-155.214-6.426Zm14.04-.5v-4.482h4.248a2.033,2.033,0,0,1,2.286,2.2c0,1.872-1.368,2.286-2.97,2.286ZM-142.884,0h1.71V-5.49H-137c1.656,0,1.962,1.062,2.142,2.322.252,1.26-.018,2.646.468,3.168h1.908c-.72-.882-.648-2.286-.756-3.546-.126-1.26-.432-2.358-1.926-2.646v-.036a3.083,3.083,0,0,0,2.232-3.258c0-2.052-1.494-3.366-3.906-3.366h-6.048ZM-127.8,0h1.764l1.44-3.87h5.436l1.4,3.87h1.89l-5.022-12.852h-1.89Zm5.922-11.3h.036L-119.7-5.31h-4.356ZM-110.322,0h8.514V-1.44h-6.8V-12.852h-1.71Zm9.72,0h1.71V-12.852h-1.71Zm4.266,0h1.62V-10.692h.036L-90.666,0h1.458l4.014-10.692h.036V0h1.62V-12.852h-2.34l-4.068,10.8L-94-12.852h-2.34Zm15.354,0h1.71V-12.852h-1.71Zm7.146,0h1.71V-11.412h4.284v-1.44H-78.12v1.44h4.284Zm7.056,0h8.928V-1.44H-65.07V-5.886h6.678v-1.44H-65.07v-4.086h7.164v-1.44H-66.78Zm10.638,0h4.41c4.284,0,6.174-2.43,6.174-6.732,0-4.14-2.214-6.12-6.174-6.12h-4.41Zm1.71-11.412h2.88c3.15,0,4.284,1.854,4.284,4.914,0,4.734-3.15,5.058-4.32,5.058h-2.844ZM-36.27,0h1.71V-11.412h4.284v-1.44H-40.554v1.44h4.284Zm7.128,0h1.71V-12.852h-1.71Zm4.266,0h1.62V-10.692h.036L-19.206,0h1.458l4.014-10.692h.036V0h1.62V-12.852h-2.34l-4.068,10.8-4.05-10.8h-2.34ZM-9.594,0H-.666V-1.44H-7.884V-5.886h6.678v-1.44H-7.884v-4.086H-.72v-1.44H-9.594Z" transform="translate(-779)"/>
    </g>
  </g>
</svg>
